HIERARCHY
ROOT Hips
{
	OFFSET 0.00 0.00 0.00
	CHANNELS 6 Xposition Yposition Zposition Xrotation Yrotation Zrotation
	JOINT Spine
	{
		OFFSET 0.00000 1.70439 2.55658
		CHANNELS 3 Xrotation Yrotation Zrotation
		JOINT Spine1
		{
			OFFSET 0.00000 0.59193 3.35699
			CHANNELS 3 Xrotation Yrotation Zrotation
			JOINT Spine2
			{
				OFFSET 0.00000 0.29710 3.39581
				CHANNELS 3 Xrotation Yrotation Zrotation
				JOINT Spine3
				{
					OFFSET 0.00000 0.00000 3.40878
					CHANNELS 3 Xrotation Yrotation Zrotation
					JOINT Neck
					{
						OFFSET 0.00000 -1.27828 8.94804
						CHANNELS 3 Xrotation Yrotation Zrotation
						JOINT Head
						{
							OFFSET 0.00000 -0.81390 4.61586
							CHANNELS 3 Xrotation Yrotation Zrotation
							End Site
							{
								OFFSET 0.00000 0.00001 5.51796
							}
						}
					}
					JOINT RightShoulder
					{
						OFFSET -1.18875 -1.98124 6.41925
						CHANNELS 3 Xrotation Yrotation Zrotation
						JOINT RightArm
						{
							OFFSET -5.90412 0.00000 0.00000
							CHANNELS 3 Xrotation Yrotation Zrotation
							JOINT RightForeArm
							{
								OFFSET -11.94674 0.00000 0.00000
								CHANNELS 3 Xrotation Yrotation Zrotation
								JOINT RightHand
								{
									OFFSET -10.17720 0.00000 0.00000
									CHANNELS 3 Xrotation Yrotation Zrotation
									JOINT RightHandEnd
									{
										OFFSET -2.84518 0.00000 0.00000
										CHANNELS 3 Xrotation Yrotation Zrotation
										End Site
										{
											OFFSET -2.84518 0.00000 0.00000
										}
									}
									JOINT RightHandThumb1
									{
										OFFSET -1.13807 -1.89679 -0.75871
										CHANNELS 3 Yrotation Xrotation Zrotation
										End Site
										{
											OFFSET -2.74823 -0.73639 0.00000
										}
									}
								}
							}
						}
					}
					JOINT LeftShoulder
					{
						OFFSET 1.18875 -1.98124 6.41925
						CHANNELS 3 Xrotation Yrotation Zrotation
						JOINT LeftArm
						{
							OFFSET 5.90412 0.00000 0.00000
							CHANNELS 3 Xrotation Yrotation Zrotation
							JOINT LeftForeArm
							{
								OFFSET 11.94674 0.00000 0.00000
								CHANNELS 3 Xrotation Yrotation Zrotation
								JOINT LeftHand
								{
									OFFSET 10.17720 0.00000 0.00000
									CHANNELS 3 Xrotation Yrotation Zrotation
									JOINT LeftHandEnd
									{
										OFFSET 2.84518 0.00000 0.00000
										CHANNELS 3 Xrotation Yrotation Zrotation
										End Site
										{
											OFFSET 2.84518 0.00000 0.00000
										}
									}
									JOINT LeftHandThumb1
									{
										OFFSET 1.13807 -1.89679 -0.75871
										CHANNELS 3 Yrotation Xrotation Zrotation
										End Site
										{
											OFFSET 2.74823 -0.73639 0.00000
										}
									}
								}
							}
						}
					}
				}
			}
		}
	}
	JOINT RightUpLeg
	{
		OFFSET -3.52662 0.00000 -1.03025
		CHANNELS 3 Xrotation Yrotation Zrotation
		JOINT RightLeg
		{
			OFFSET 0.00001 0.00000 -17.80159
			CHANNELS 3 Xrotation Yrotation Zrotation
			JOINT RightFoot
			{
				OFFSET 0.00001 0.00000 -16.85992
				CHANNELS 3 Xrotation Yrotation Zrotation
				JOINT RightToeBase
				{
					OFFSET 0.00000 -5.42953 -1.97619
					CHANNELS 3 Xrotation Yrotation Zrotation
					End Site
					{
						OFFSET 0.00000 -2.85300 -0.00000
					}
				}
			}
		}
	}
	JOINT LeftUpLeg
	{
		OFFSET 3.52662 0.00000 -1.03025
		CHANNELS 3 Xrotation Yrotation Zrotation
		JOINT LeftLeg
		{
			OFFSET 0.00001 0.00000 -17.80159
			CHANNELS 3 Xrotation Yrotation Zrotation
			JOINT LeftFoot
			{
				OFFSET 0.00001 0.00000 -16.85992
				CHANNELS 3 Xrotation Yrotation Zrotation
				JOINT LeftToeBase
				{
					OFFSET 0.00000 -5.42953 -1.97619
					CHANNELS 3 Xrotation Yrotation Zrotation
					End Site
					{
						OFFSET 0.00000 -2.85300 -0.00000
					}
				}
			}
		}
	}
}
MOTION
Frames: 10
Frame Time: 0.008342
 -20.2184 -84.0224 36.1752 -4.4864 -1.6798 25.7630 1.5591 0.8430 -0.8005 0.4476 -0.1104 -0.1766 3.6483 -3.6224 -2.3496 1.6558 -0.5803 0.7876 8.0750 1.3875 3.0848 1.9614 4.0969 11.5945 19.8306 -24.5930 1.4967 31.6365 -32.3073 35.4981 0.0000 0.0000 15.2461 -10.1156 19.1525 -7.1415 0.0000 -0.0000 0.0000 0.0000 -0.0000 0.0000 14.3304 11.3635 -9.4509 37.0619 38.2290 -44.1674 -0.0000 -0.0000 -39.9055 -4.0656 -19.4137 -0.4738 0.0000 -0.0000 0.0000 -0.0000 -0.0000 0.0000 -17.5404 10.0170 -11.5256 30.3785 0.0000 0.0000 -7.2326 -12.4343 -1.3787 -1.4460 0.0000 -0.0000 0.4985 5.0986 -10.7586 52.5523 0.0000 0.0000 2.3042 -9.2733 -5.7896 -44.0476 0.0000 -0.0000
 -20.2062 -84.3191 36.1810 -4.6664 -1.3396 26.5444 1.5404 0.4822 -0.7708 0.4547 -0.1462 -0.1883 3.5964 -3.7241 -2.3782 1.6275 -0.5948 0.7895 8.0669 1.4144 3.1031 2.0892 4.0914 11.5611 19.6614 -24.4453 1.5372 30.9161 -32.5247 34.9896 0.0000 0.0000 15.5051 -10.1896 19.5922 -7.3474 0.0000 0.0000 -0.0000 -0.0000 -0.0000 0.0000 14.3760 11.2970 -9.4579 37.8090 37.9755 -44.7229 -0.0000 -0.0000 -38.1842 -4.4201 -19.3727 0.1780 0.0000 0.0000 0.0000 0.0000 -0.0000 0.0000 -16.9838 9.4624 -11.7167 30.6178 0.0000 0.0000 -8.0326 -12.1425 -2.2813 -1.7488 0.0000 -0.0000 -0.5107 4.3529 -10.1562 54.3398 0.0000 0.0000 5.2074 -9.3053 -6.3019 -45.5618 0.0000 -0.0000
 -20.1935 -84.6096 36.1825 -4.8535 -1.0347 27.3543 1.5452 0.1407 -0.7388 0.4703 -0.1763 -0.1985 3.5490 -3.8103 -2.3999 1.5979 -0.6090 0.7918 8.0247 1.4196 3.1025 2.1988 4.0873 11.5166 19.4905 -24.3089 1.5822 30.1320 -32.7520 34.4106 0.0000 0.0000 15.8537 -10.3624 20.0374 -7.4189 -0.0000 0.0000 0.0000 -0.0000 -0.0000 -0.0000 14.4053 11.1998 -9.5014 38.5726 37.6732 -45.2689 -0.0000 -0.0000 -36.5138 -4.7593 -19.2228 0.8573 0.0000 0.0000 -0.0000 -0.0000 -0.0000 0.0000 -16.4289 8.9318 -11.9111 30.8593 0.0000 0.0000 -8.8006 -11.8210 -3.1393 -2.1168 0.0000 -0.0000 -1.5546 3.6287 -9.5733 56.0970 0.0000 0.0000 7.9802 -9.4137 -6.6977 -46.1847 0.0000 -0.0000
 -20.1799 -84.8928 36.1795 -5.0435 -0.7735 28.1838 1.5751 -0.1795 -0.7032 0.4935 -0.2005 -0.2068 3.5096 -3.8754 -2.4089 1.5676 -0.6213 0.7946 7.9466 1.4041 3.0841 2.2869 4.0853 11.4605 19.3236 -24.1911 1.6383 29.2841 -32.9703 33.7608 0.0000 0.0000 16.2833 -10.6382 20.4742 -7.3541 0.0000 -0.0000 0.0000 -0.0000 -0.0000 0.0000 14.4186 11.0805 -9.5792 39.3405 37.3162 -45.7924 -0.0000 -0.0000 -34.9081 -5.0827 -18.9555 1.5467 0.0000 0.0000 0.0000 0.0000 -0.0000 0.0000 -15.8890 8.4374 -12.0984 31.1208 0.0000 0.0000 -9.5493 -11.4715 -3.9591 -2.5025 0.0000 -0.0000 -2.6230 2.9408 -9.0069 57.8198 0.0000 0.0000 10.4862 -9.5485 -6.9162 -45.8762 0.0000 -0.0000
 -20.1643 -85.1679 36.1722 -5.2265 -0.5675 29.0225 1.6284 -0.4696 -0.6652 0.5227 -0.2196 -0.2132 3.4811 -3.9150 -2.3972 1.5392 -0.6311 0.7984 7.8310 1.3723 3.0498 2.3510 4.0859 11.3914 19.1653 -24.0972 1.7080 28.3792 -33.1572 33.0493 0.0000 0.0000 16.7790 -11.0183 20.8887 -7.1563 -0.0000 0.0000 0.0000 0.0000 -0.0000 0.0000 14.4121 10.9506 -9.6880 40.1011 36.9061 -46.2780 -0.0000 -0.0000 -33.3785 -5.3908 -18.5645 2.2228 -0.0000 -0.0000 -0.0000 -0.0000 0.0000 0.0000 -15.3794 7.9984 -12.2715 31.4210 0.0000 0.0000 -10.2928 -11.0999 -4.7466 -2.8640 0.0000 -0.0000 -3.7118 2.3099 -8.4512 59.5086 0.0000 0.0000 12.6060 -9.6431 -6.9081 -44.7087 0.0000 -0.0000
 -20.1461 -85.4344 36.1608 -5.4000 -0.4189 29.8589 1.7060 -0.7330 -0.6218 0.5574 -0.2307 -0.2164 3.4667 -3.9292 -2.3649 1.5106 -0.6361 0.8036 7.6821 1.3282 3.0018 2.3876 4.0890 11.3125 19.0259 -24.0294 1.8027 27.4158 -33.3000 32.2798 0.0000 0.0000 17.3240 -11.4932 21.2696 -6.8278 0.0000 0.0000 0.0000 -0.0000 -0.0000 -0.0000 14.3952 10.8213 -9.8195 40.8394 36.4338 -46.7173 -0.0000 -0.0000 -31.9341 -5.6757 -18.0554 2.8739 -0.0000 -0.0000 0.0000 0.0000 -0.0000 0.0000 -14.9043 7.6205 -12.4302 31.7679 0.0000 0.0000 -11.0397 -10.7140 -5.5069 -3.1687 0.0000 -0.0000 -4.8160 1.7413 -7.8953 61.1682 0.0000 0.0000 14.2421 -9.6327 -6.6454 -42.8510 0.0000 -0.0000
 -20.1242 -85.6912 36.1456 -5.5448 -0.3374 30.6822 1.7980 -0.9572 -0.5742 0.5952 -0.2273 -0.2140 3.4682 -3.9231 -2.3106 1.4851 -0.6351 0.8097 7.4999 1.2774 2.9485 2.3973 4.0957 11.2206 18.9081 -23.9869 1.9247 26.4092 -33.3782 31.4697 0.0000 0.0000 17.9035 -12.0540 21.6067 -6.3989 0.0000 -0.0000 0.0000 -0.0000 -0.0000 -0.0000 14.3657 10.7048 -9.9642 41.5433 35.9081 -47.0979 -0.0000 -0.0000 -30.5821 -5.9372 -17.4342 3.4727 0.0000 0.0000 0.0000 0.0000 -0.0000 0.0000 -14.4809 7.3265 -12.5714 32.1750 0.0000 0.0000 -11.8006 -10.3245 -6.2442 -3.3965 0.0000 -0.0000 -5.9411 1.2561 -7.3257 62.7963 0.0000 0.0000 15.3327 -9.4692 -6.1178 -40.5298 0.0000 -0.0000
 -20.0991 -85.9390 36.1274 -5.6666 -0.3070 31.4875 1.9064 -1.1456 -0.5263 0.6335 -0.2409 -0.2155 3.4831 -3.8767 -2.2204 1.4641 -0.6310 0.8167 7.2899 1.2268 2.8903 2.3800 4.1006 11.1174 18.8121 -23.9707 2.0688 25.3723 -33.3810 30.6370 0.0000 0.0000 18.4972 -12.6791 21.8958 -5.8885 -0.0000 -0.0000 -0.0000 0.0000 -0.0000 0.0000 14.3216 10.6093 -10.1178 42.2033 35.3436 -47.4056 -0.0000 -0.0000 -29.3311 -6.1652 -16.7130 4.0033 -0.0000 -0.0000 -0.0000 -0.0000 0.0000 0.0000 -14.1007 7.0962 -12.6995 32.6297 0.0000 0.0000 -12.5738 -9.9394 -6.9708 -3.5410 0.0000 -0.0000 -7.0845 0.8299 -6.7281 64.3920 0.0000 0.0000 15.8384 -9.1379 -5.3475 -37.9781 0.0000 -0.0000
 -20.0696 -86.1781 36.1068 -5.7636 -0.3299 32.2672 2.0259 -1.3138 -0.4753 0.6715 -0.2231 -0.2059 3.5181 -3.8250 -2.1202 1.4451 -0.6220 0.8230 7.0564 1.1829 2.8393 2.3392 4.1023 11.0077 18.7431 -23.9677 2.2555 24.3167 -33.3100 29.7879 0.0000 0.0000 19.0944 -13.3495 22.1391 -5.3281 -0.0000 -0.0000 0.0000 -0.0000 0.0000 0.0000 14.2737 10.5364 -10.2516 42.8185 34.7367 -47.6646 -0.0000 -0.0000 -28.1715 -6.3575 -15.9233 4.4506 -0.0000 -0.0000 -0.0000 0.0000 -0.0000 0.0000 -13.7543 6.9343 -12.8201 33.1241 0.0000 0.0000 -13.3568 -9.5686 -7.6839 -3.6066 0.0000 -0.0000 -8.2326 0.4629 -6.0883 65.9350 0.0000 0.0000 15.7608 -8.6548 -4.3663 -35.3960 0.0000 -0.0000
 -20.0363 -86.4088 36.0845 -5.8255 -0.3907 33.0213 2.1477 -1.4482 -0.4259 0.7069 -0.2155 -0.1984 3.5629 -3.7459 -1.9931 1.4323 -0.6113 0.8300 6.8063 1.1477 2.7943 2.2757 4.1048 10.8877 18.6941 -23.9811 2.4611 23.2700 -33.1487 28.9573 0.0000 0.0000 19.6704 -14.0426 22.3370 -4.7444 -0.0000 -0.0000 -0.0000 -0.0000 -0.0000 0.0000 14.2180 10.4941 -10.3751 43.3739 34.1216 -47.8454 -0.0000 -0.0000 -27.1187 -6.4977 -15.0877 4.8091 0.0000 -0.0000 0.0000 -0.0000 -0.0000 0.0000 -13.4474 6.8301 -12.9348 33.6442 0.0000 0.0000 -14.1424 -9.2182 -8.3901 -3.6078 0.0000 -0.0000 -9.3932 0.1399 -5.3963 67.4054 0.0000 0.0000 15.1327 -8.0694 -3.2308 -32.9310 0.0000 -0.0000
